<mxfile host="app.diagrams.net" modified="2022-01-09T07:36:31.644Z" agent="5.0 (Macintosh; Intel Mac OS X 10_15_7) AppleWebKit/537.36 (KHTML, like Gecko) Chrome/91.0.4472.114 Safari/537.36" etag="YZtQQ0a8P-KWYshHAqjz" version="16.2.1" type="github" pages="2">
  <diagram name="apollo" id="edf60f1a-56cd-e834-aa8a-f176f3a09ee4">
    <mxGraphModel dx="1892" dy="1076" grid="1" gridSize="10" guides="1" tooltips="1" connect="1" arrows="1" fold="1" page="1" pageScale="1" pageWidth="1100" pageHeight="850" background="#B0E3E6" math="0" shadow="0">
      <root>
        <mxCell id="0" />
        <mxCell id="1" parent="0" />
        <mxCell id="60e70716793133e9-32" style="edgeStyle=orthogonalEdgeStyle;rounded=0;html=1;labelBackgroundColor=none;startSize=5;endArrow=classicThin;endFill=1;endSize=5;jettySize=auto;orthogonalLoop=1;strokeWidth=1;fontFamily=Verdana;fontSize=17;fontStyle=1;strokeColor=#182E3E;fontColor=#1A1A1A;" parent="1" source="60e70716793133e9-4" target="60e70716793133e9-5" edge="1">
          <mxGeometry relative="1" as="geometry" />
        </mxCell>
        <mxCell id="Idmc_XTQv_-H7MCbFBoS-54" value="" style="edgeStyle=orthogonalEdgeStyle;rounded=0;orthogonalLoop=1;jettySize=auto;html=1;entryX=0.5;entryY=1;entryDx=0;entryDy=0;fontSize=17;fontStyle=1;labelBackgroundColor=#B0E3E6;strokeColor=#182E3E;fontColor=#1A1A1A;" parent="1" source="60e70716793133e9-4" target="Idmc_XTQv_-H7MCbFBoS-50" edge="1">
          <mxGeometry relative="1" as="geometry">
            <mxPoint x="80" y="140" as="targetPoint" />
          </mxGeometry>
        </mxCell>
        <mxCell id="Idmc_XTQv_-H7MCbFBoS-55" value="拉取运营配置信息" style="edgeLabel;html=1;align=center;verticalAlign=middle;resizable=0;points=[];fontSize=17;fontStyle=1;labelBackgroundColor=#B0E3E6;fontColor=#1A1A1A;" parent="Idmc_XTQv_-H7MCbFBoS-54" vertex="1" connectable="0">
          <mxGeometry x="0.0667" y="-4" relative="1" as="geometry">
            <mxPoint y="-1" as="offset" />
          </mxGeometry>
        </mxCell>
        <mxCell id="Idmc_XTQv_-H7MCbFBoS-96" value="" style="edgeStyle=orthogonalEdgeStyle;curved=0;rounded=1;sketch=0;orthogonalLoop=1;jettySize=auto;html=1;fontSize=17;entryX=0;entryY=0.5;entryDx=0;entryDy=0;labelBackgroundColor=#B0E3E6;strokeColor=#182E3E;fontColor=#1A1A1A;fontStyle=1" parent="1" source="60e70716793133e9-4" target="Idmc_XTQv_-H7MCbFBoS-85" edge="1">
          <mxGeometry relative="1" as="geometry">
            <mxPoint x="-230" y="-140" as="targetPoint" />
          </mxGeometry>
        </mxCell>
        <mxCell id="60e70716793133e9-4" value="萝卜app" style="rounded=0;whiteSpace=wrap;html=1;shadow=1;labelBackgroundColor=none;strokeWidth=1;fontFamily=Verdana;fontSize=17;align=center;fontStyle=1;strokeColor=#FFFFFF;fillColor=#F08E81;fontColor=#1A1A1A;" parent="1" vertex="1">
          <mxGeometry x="20" y="220" width="120" height="60" as="geometry" />
        </mxCell>
        <mxCell id="60e70716793133e9-33" value="" style="edgeStyle=orthogonalEdgeStyle;rounded=0;html=1;labelBackgroundColor=none;startSize=5;endArrow=classicThin;endFill=1;endSize=5;jettySize=auto;orthogonalLoop=1;strokeWidth=1;fontFamily=Verdana;fontSize=17;fontStyle=1;entryX=0;entryY=0.5;entryDx=0;entryDy=0;strokeColor=#182E3E;fontColor=#1A1A1A;" parent="1" source="60e70716793133e9-5" target="bbj0CBgUNTtJuTdAdlhA-1" edge="1">
          <mxGeometry x="-0.7778" y="10" relative="1" as="geometry">
            <mxPoint as="offset" />
            <mxPoint x="390" y="250" as="targetPoint" />
          </mxGeometry>
        </mxCell>
        <mxCell id="60e70716793133e9-5" value="站点选择" style="rhombus;whiteSpace=wrap;html=1;rounded=0;shadow=1;labelBackgroundColor=none;strokeWidth=1;fontFamily=Verdana;fontSize=17;align=center;fontStyle=1;" parent="1" vertex="1">
          <mxGeometry x="280" y="220" width="100" height="60" as="geometry" />
        </mxCell>
        <mxCell id="bbj0CBgUNTtJuTdAdlhA-29" value="" style="edgeStyle=orthogonalEdgeStyle;rounded=0;orthogonalLoop=1;jettySize=auto;html=1;fontSize=17;fontStyle=1;labelBackgroundColor=#B0E3E6;strokeColor=#182E3E;fontColor=#1A1A1A;" parent="1" source="60e70716793133e9-17" target="bbj0CBgUNTtJuTdAdlhA-25" edge="1">
          <mxGeometry relative="1" as="geometry" />
        </mxCell>
        <mxCell id="60e70716793133e9-17" value="到达起点" style="rhombus;whiteSpace=wrap;html=1;rounded=0;shadow=1;labelBackgroundColor=none;strokeWidth=1;fontFamily=Verdana;fontSize=17;align=center;fontStyle=1;" parent="1" vertex="1">
          <mxGeometry x="280" y="569" width="100" height="60" as="geometry" />
        </mxCell>
        <mxCell id="bbj0CBgUNTtJuTdAdlhA-4" value="" style="edgeStyle=orthogonalEdgeStyle;rounded=0;orthogonalLoop=1;jettySize=auto;html=1;fontSize=17;fontStyle=1;labelBackgroundColor=#B0E3E6;strokeColor=#182E3E;fontColor=#1A1A1A;" parent="1" source="bbj0CBgUNTtJuTdAdlhA-1" target="bbj0CBgUNTtJuTdAdlhA-2" edge="1">
          <mxGeometry relative="1" as="geometry">
            <Array as="points">
              <mxPoint x="680" y="250" />
            </Array>
          </mxGeometry>
        </mxCell>
        <mxCell id="bbj0CBgUNTtJuTdAdlhA-1" value="下单" style="rhombus;whiteSpace=wrap;html=1;rounded=0;shadow=1;labelBackgroundColor=none;strokeWidth=1;fontFamily=Verdana;fontSize=17;align=center;fontStyle=1;" parent="1" vertex="1">
          <mxGeometry x="490" y="220" width="100" height="60" as="geometry" />
        </mxCell>
        <mxCell id="bbj0CBgUNTtJuTdAdlhA-24" value="" style="edgeStyle=orthogonalEdgeStyle;rounded=0;orthogonalLoop=1;jettySize=auto;html=1;fontSize=17;fontStyle=1;labelBackgroundColor=#B0E3E6;strokeColor=#182E3E;fontColor=#1A1A1A;" parent="1" source="bbj0CBgUNTtJuTdAdlhA-2" edge="1">
          <mxGeometry relative="1" as="geometry">
            <mxPoint x="490" y="450" as="targetPoint" />
            <Array as="points">
              <mxPoint x="740" y="450" />
            </Array>
          </mxGeometry>
        </mxCell>
        <mxCell id="bbj0CBgUNTtJuTdAdlhA-39" value="" style="edgeStyle=orthogonalEdgeStyle;rounded=0;orthogonalLoop=1;jettySize=auto;html=1;entryX=0.442;entryY=1.067;entryDx=0;entryDy=0;entryPerimeter=0;fontSize=17;fontStyle=1;labelBackgroundColor=#B0E3E6;strokeColor=#182E3E;fontColor=#1A1A1A;" parent="1" edge="1">
          <mxGeometry relative="1" as="geometry">
            <Array as="points">
              <mxPoint x="650" y="320" />
              <mxPoint x="73" y="320" />
            </Array>
            <mxPoint x="650" y="346.0569230769231" as="sourcePoint" />
            <mxPoint x="73.03999999999996" y="280.0000000000002" as="targetPoint" />
          </mxGeometry>
        </mxCell>
        <mxCell id="bbj0CBgUNTtJuTdAdlhA-51" style="edgeStyle=orthogonalEdgeStyle;rounded=0;orthogonalLoop=1;jettySize=auto;html=1;entryX=0.5;entryY=0;entryDx=0;entryDy=0;exitX=0;exitY=0.5;exitDx=0;exitDy=0;fontSize=17;fontStyle=1;labelBackgroundColor=#B0E3E6;strokeColor=#182E3E;fontColor=#1A1A1A;" parent="1" source="bbj0CBgUNTtJuTdAdlhA-2" edge="1">
          <mxGeometry relative="1" as="geometry">
            <mxPoint x="773.0000000000002" y="360.0769230769231" as="sourcePoint" />
            <mxPoint x="73" y="420" as="targetPoint" />
            <Array as="points">
              <mxPoint x="780" y="360" />
              <mxPoint x="73" y="360" />
            </Array>
          </mxGeometry>
        </mxCell>
        <mxCell id="Idmc_XTQv_-H7MCbFBoS-101" value="上报车辆session" style="edgeStyle=orthogonalEdgeStyle;curved=0;rounded=1;sketch=0;orthogonalLoop=1;jettySize=auto;html=1;fontSize=17;entryX=0;entryY=0.5;entryDx=0;entryDy=0;labelBackgroundColor=#B0E3E6;strokeColor=#182E3E;fontColor=#1A1A1A;fontStyle=1" parent="1" edge="1">
          <mxGeometry relative="1" as="geometry">
            <mxPoint x="865" y="371" as="sourcePoint" />
            <mxPoint x="1055" y="371" as="targetPoint" />
          </mxGeometry>
        </mxCell>
        <mxCell id="bbj0CBgUNTtJuTdAdlhA-2" value="MCP" style="rounded=0;whiteSpace=wrap;html=1;shadow=1;labelBackgroundColor=none;strokeWidth=1;fontFamily=Verdana;fontSize=17;align=center;fontStyle=1;fillColor=#F08E81;strokeColor=#FFFFFF;fontColor=#1A1A1A;" parent="1" vertex="1">
          <mxGeometry x="615" y="290" width="250" height="110" as="geometry" />
        </mxCell>
        <mxCell id="Idmc_XTQv_-H7MCbFBoS-99" value="" style="edgeStyle=orthogonalEdgeStyle;curved=0;rounded=1;sketch=0;orthogonalLoop=1;jettySize=auto;html=1;fontSize=17;labelBackgroundColor=#B0E3E6;strokeColor=#182E3E;fontColor=#1A1A1A;fontStyle=1" parent="1" edge="1">
          <mxGeometry relative="1" as="geometry">
            <mxPoint x="1055" y="345.0769230769231" as="sourcePoint" />
            <mxPoint x="865" y="345" as="targetPoint" />
            <Array as="points">
              <mxPoint x="1005" y="345" />
              <mxPoint x="1005" y="345" />
            </Array>
          </mxGeometry>
        </mxCell>
        <mxCell id="Idmc_XTQv_-H7MCbFBoS-100" value="派单" style="edgeLabel;html=1;align=center;verticalAlign=middle;resizable=0;points=[];fontSize=17;labelBackgroundColor=#B0E3E6;fontColor=#1A1A1A;fontStyle=1" parent="Idmc_XTQv_-H7MCbFBoS-99" vertex="1" connectable="0">
          <mxGeometry x="0.1077" y="-1" relative="1" as="geometry">
            <mxPoint x="-1" as="offset" />
          </mxGeometry>
        </mxCell>
        <mxCell id="bbj0CBgUNTtJuTdAdlhA-6" value="派单调度" style="rounded=0;whiteSpace=wrap;html=1;shadow=1;labelBackgroundColor=none;strokeWidth=1;fontFamily=Verdana;fontSize=17;align=center;fontStyle=1;strokeColor=#FFFFFF;fillColor=#F08E81;fontColor=#1A1A1A;" parent="1" vertex="1">
          <mxGeometry x="1055" y="290" width="150" height="110" as="geometry" />
        </mxCell>
        <mxCell id="bbj0CBgUNTtJuTdAdlhA-18" value="" style="edgeStyle=orthogonalEdgeStyle;rounded=0;orthogonalLoop=1;jettySize=auto;html=1;entryX=0;entryY=0.5;entryDx=0;entryDy=0;fontSize=17;fontStyle=1;labelBackgroundColor=#B0E3E6;strokeColor=#182E3E;fontColor=#1A1A1A;" parent="1" source="bbj0CBgUNTtJuTdAdlhA-13" target="bbj0CBgUNTtJuTdAdlhA-16" edge="1">
          <mxGeometry relative="1" as="geometry">
            <mxPoint x="240" y="450" as="targetPoint" />
          </mxGeometry>
        </mxCell>
        <mxCell id="bbj0CBgUNTtJuTdAdlhA-37" value="" style="edgeStyle=orthogonalEdgeStyle;rounded=0;orthogonalLoop=1;jettySize=auto;html=1;entryX=0;entryY=0.5;entryDx=0;entryDy=0;fontSize=17;fontStyle=1;labelBackgroundColor=#B0E3E6;strokeColor=#182E3E;fontColor=#1A1A1A;" parent="1" target="60e70716793133e9-17" edge="1">
          <mxGeometry relative="1" as="geometry">
            <mxPoint x="76.92000000000007" y="610" as="targetPoint" />
            <mxPoint x="79" y="480" as="sourcePoint" />
            <Array as="points">
              <mxPoint x="100" y="480" />
              <mxPoint x="100" y="599" />
            </Array>
          </mxGeometry>
        </mxCell>
        <mxCell id="Idmc_XTQv_-H7MCbFBoS-65" value="" style="edgeStyle=orthogonalEdgeStyle;curved=0;rounded=1;sketch=0;orthogonalLoop=1;jettySize=auto;html=1;fontSize=17;entryX=0.75;entryY=1;entryDx=0;entryDy=0;labelBackgroundColor=#B0E3E6;strokeColor=#182E3E;fontColor=#1A1A1A;fontStyle=1" parent="1" source="bbj0CBgUNTtJuTdAdlhA-13" target="bbj0CBgUNTtJuTdAdlhA-2" edge="1">
          <mxGeometry relative="1" as="geometry">
            <mxPoint x="882" y="400" as="targetPoint" />
            <Array as="points">
              <mxPoint x="130" y="530" />
              <mxPoint x="803" y="530" />
            </Array>
          </mxGeometry>
        </mxCell>
        <mxCell id="Idmc_XTQv_-H7MCbFBoS-66" value="上报车辆session信息、查是否有订单派送给自己" style="edgeLabel;html=1;align=center;verticalAlign=middle;resizable=0;points=[];fontSize=17;labelBackgroundColor=#B0E3E6;fontColor=#1A1A1A;fontStyle=1" parent="Idmc_XTQv_-H7MCbFBoS-65" vertex="1" connectable="0">
          <mxGeometry x="-0.0092" y="2" relative="1" as="geometry">
            <mxPoint as="offset" />
          </mxGeometry>
        </mxCell>
        <mxCell id="Idmc_XTQv_-H7MCbFBoS-70" value="" style="edgeStyle=orthogonalEdgeStyle;curved=0;rounded=1;sketch=0;orthogonalLoop=1;jettySize=auto;html=1;fontSize=17;labelBackgroundColor=#B0E3E6;strokeColor=#182E3E;fontColor=#1A1A1A;fontStyle=1" parent="1" source="bbj0CBgUNTtJuTdAdlhA-13" edge="1">
          <mxGeometry relative="1" as="geometry">
            <mxPoint x="1130" y="570" as="targetPoint" />
            <Array as="points">
              <mxPoint x="80" y="680" />
              <mxPoint x="1130" y="680" />
            </Array>
          </mxGeometry>
        </mxCell>
        <mxCell id="Idmc_XTQv_-H7MCbFBoS-71" value="拉取运力配置信息" style="edgeLabel;html=1;align=center;verticalAlign=middle;resizable=0;points=[];fontSize=17;labelBackgroundColor=#B0E3E6;fontColor=#1A1A1A;fontStyle=1" parent="Idmc_XTQv_-H7MCbFBoS-70" vertex="1" connectable="0">
          <mxGeometry x="0.2492" y="-3" relative="1" as="geometry">
            <mxPoint x="120" y="-3" as="offset" />
          </mxGeometry>
        </mxCell>
        <mxCell id="bbj0CBgUNTtJuTdAdlhA-13" value="车端" style="rounded=0;whiteSpace=wrap;html=1;shadow=1;labelBackgroundColor=none;strokeWidth=1;fontFamily=Verdana;fontSize=17;align=center;fontStyle=1;strokeColor=#FFFFFF;fillColor=#F08E81;fontColor=#1A1A1A;" parent="1" vertex="1">
          <mxGeometry x="20" y="420" width="120" height="60" as="geometry" />
        </mxCell>
        <mxCell id="bbj0CBgUNTtJuTdAdlhA-16" value="Habor" style="rounded=0;whiteSpace=wrap;html=1;shadow=1;labelBackgroundColor=none;strokeWidth=1;fontFamily=Verdana;fontSize=17;align=center;fontStyle=1;strokeColor=#FFFFFF;fillColor=#F08E81;fontColor=#1A1A1A;" parent="1" vertex="1">
          <mxGeometry x="370" y="420" width="120" height="60" as="geometry" />
        </mxCell>
        <mxCell id="bbj0CBgUNTtJuTdAdlhA-30" value="" style="edgeStyle=orthogonalEdgeStyle;rounded=0;orthogonalLoop=1;jettySize=auto;html=1;fontSize=17;fontStyle=1;labelBackgroundColor=#B0E3E6;strokeColor=#182E3E;fontColor=#1A1A1A;" parent="1" source="bbj0CBgUNTtJuTdAdlhA-25" target="bbj0CBgUNTtJuTdAdlhA-27" edge="1">
          <mxGeometry relative="1" as="geometry" />
        </mxCell>
        <mxCell id="bbj0CBgUNTtJuTdAdlhA-25" value="到达终点" style="rhombus;whiteSpace=wrap;html=1;rounded=0;shadow=1;labelBackgroundColor=none;strokeWidth=1;fontFamily=Verdana;fontSize=17;align=center;fontStyle=1;" parent="1" vertex="1">
          <mxGeometry x="430" y="569" width="100" height="60" as="geometry" />
        </mxCell>
        <mxCell id="bbj0CBgUNTtJuTdAdlhA-27" value="下车" style="rhombus;whiteSpace=wrap;html=1;rounded=0;shadow=1;labelBackgroundColor=none;strokeWidth=1;fontFamily=Verdana;fontSize=17;align=center;fontStyle=1;" parent="1" vertex="1">
          <mxGeometry x="580" y="569" width="100" height="60" as="geometry" />
        </mxCell>
        <mxCell id="bbj0CBgUNTtJuTdAdlhA-35" value="车辆位置等信息定期上报" style="text;html=1;align=center;verticalAlign=middle;resizable=0;points=[];autosize=1;strokeColor=none;fillColor=none;fontSize=17;fontStyle=1;fontColor=#1A1A1A;" parent="1" vertex="1">
          <mxGeometry x="160" y="425" width="200" height="30" as="geometry" />
        </mxCell>
        <mxCell id="bbj0CBgUNTtJuTdAdlhA-42" value="派车" style="text;html=1;align=center;verticalAlign=middle;resizable=0;points=[];autosize=1;strokeColor=none;fillColor=none;fontSize=17;fontStyle=1;fontColor=#1A1A1A;" parent="1" vertex="1">
          <mxGeometry x="364" y="305" width="50" height="30" as="geometry" />
        </mxCell>
        <mxCell id="bbj0CBgUNTtJuTdAdlhA-43" value="派单" style="text;html=1;align=center;verticalAlign=middle;resizable=0;points=[];autosize=1;strokeColor=none;fillColor=none;fontSize=17;fontStyle=1;fontColor=#1A1A1A;" parent="1" vertex="1">
          <mxGeometry x="364" y="348" width="50" height="30" as="geometry" />
        </mxCell>
        <mxCell id="Idmc_XTQv_-H7MCbFBoS-37" value="计价" style="rounded=0;whiteSpace=wrap;html=1;shadow=1;labelBackgroundColor=none;strokeWidth=1;fontFamily=Verdana;fontSize=17;align=center;fontStyle=1;fillColor=#F08E81;strokeColor=#FFFFFF;fontColor=#1A1A1A;" parent="1" vertex="1">
          <mxGeometry x="780" y="60" width="120" height="60" as="geometry" />
        </mxCell>
        <mxCell id="Idmc_XTQv_-H7MCbFBoS-43" value="" style="endArrow=classic;html=1;rounded=0;fontSize=17;fontStyle=1;exitX=0.834;exitY=0.014;exitDx=0;exitDy=0;exitPerimeter=0;entryX=0.36;entryY=1.001;entryDx=0;entryDy=0;entryPerimeter=0;labelBackgroundColor=#B0E3E6;strokeColor=#182E3E;fontColor=#1A1A1A;" parent="1" source="bbj0CBgUNTtJuTdAdlhA-2" target="Idmc_XTQv_-H7MCbFBoS-37" edge="1">
          <mxGeometry width="50" height="50" relative="1" as="geometry">
            <mxPoint x="859" y="310" as="sourcePoint" />
            <mxPoint x="859" y="120" as="targetPoint" />
          </mxGeometry>
        </mxCell>
        <mxCell id="Idmc_XTQv_-H7MCbFBoS-44" value="" style="endArrow=classic;html=1;rounded=0;fontSize=17;fontStyle=1;labelBackgroundColor=#B0E3E6;strokeColor=#182E3E;fontColor=#1A1A1A;" parent="1" edge="1">
          <mxGeometry width="50" height="50" relative="1" as="geometry">
            <mxPoint x="850" y="120" as="sourcePoint" />
            <mxPoint x="850" y="290" as="targetPoint" />
            <Array as="points">
              <mxPoint x="850" y="290" />
            </Array>
          </mxGeometry>
        </mxCell>
        <mxCell id="Idmc_XTQv_-H7MCbFBoS-50" value="acc运营平台" style="rounded=0;whiteSpace=wrap;html=1;shadow=1;labelBackgroundColor=none;strokeWidth=1;fontFamily=Verdana;fontSize=17;align=center;fontStyle=1;strokeColor=#FFFFFF;fillColor=#F08E81;fontColor=#1A1A1A;" parent="1" vertex="1">
          <mxGeometry x="20" y="50" width="120" height="60" as="geometry" />
        </mxCell>
        <mxCell id="Idmc_XTQv_-H7MCbFBoS-89" value="" style="edgeStyle=orthogonalEdgeStyle;curved=0;rounded=1;sketch=0;orthogonalLoop=1;jettySize=auto;html=1;fontSize=17;strokeColor=#182E3E;labelBackgroundColor=#B0E3E6;fontColor=#1A1A1A;fontStyle=1" parent="1" source="Idmc_XTQv_-H7MCbFBoS-82" target="Idmc_XTQv_-H7MCbFBoS-83" edge="1">
          <mxGeometry relative="1" as="geometry" />
        </mxCell>
        <mxCell id="Idmc_XTQv_-H7MCbFBoS-82" value="到达终点" style="rhombus;whiteSpace=wrap;html=1;rounded=0;shadow=1;labelBackgroundColor=none;strokeWidth=1;fontFamily=Verdana;fontSize=17;align=center;fontStyle=1;" parent="1" vertex="1">
          <mxGeometry x="364" y="110" width="100" height="60" as="geometry" />
        </mxCell>
        <mxCell id="Idmc_XTQv_-H7MCbFBoS-90" value="" style="edgeStyle=orthogonalEdgeStyle;curved=0;rounded=1;sketch=0;orthogonalLoop=1;jettySize=auto;html=1;fontSize=17;strokeColor=#182E3E;labelBackgroundColor=#B0E3E6;fontColor=#1A1A1A;fontStyle=1" parent="1" source="Idmc_XTQv_-H7MCbFBoS-83" target="Idmc_XTQv_-H7MCbFBoS-84" edge="1">
          <mxGeometry relative="1" as="geometry" />
        </mxCell>
        <mxCell id="Idmc_XTQv_-H7MCbFBoS-83" value="下车" style="rhombus;whiteSpace=wrap;html=1;rounded=0;shadow=1;labelBackgroundColor=none;strokeWidth=1;fontFamily=Verdana;fontSize=17;align=center;fontStyle=1;" parent="1" vertex="1">
          <mxGeometry x="520" y="110" width="100" height="60" as="geometry" />
        </mxCell>
        <mxCell id="Idmc_XTQv_-H7MCbFBoS-84" value="支付" style="rhombus;whiteSpace=wrap;html=1;rounded=0;shadow=1;labelBackgroundColor=none;strokeWidth=1;fontFamily=Verdana;fontSize=17;align=center;fontStyle=1;" parent="1" vertex="1">
          <mxGeometry x="660" y="110" width="100" height="60" as="geometry" />
        </mxCell>
        <mxCell id="Idmc_XTQv_-H7MCbFBoS-88" value="" style="edgeStyle=orthogonalEdgeStyle;curved=0;rounded=1;sketch=0;orthogonalLoop=1;jettySize=auto;html=1;fontSize=17;strokeColor=#182E3E;labelBackgroundColor=#B0E3E6;fontColor=#1A1A1A;fontStyle=1" parent="1" source="Idmc_XTQv_-H7MCbFBoS-85" target="Idmc_XTQv_-H7MCbFBoS-82" edge="1">
          <mxGeometry relative="1" as="geometry" />
        </mxCell>
        <mxCell id="Idmc_XTQv_-H7MCbFBoS-85" value="开始行程" style="rhombus;whiteSpace=wrap;html=1;rounded=0;shadow=1;labelBackgroundColor=none;strokeWidth=1;fontFamily=Verdana;fontSize=17;align=center;fontStyle=1;" parent="1" vertex="1">
          <mxGeometry x="200" y="110" width="100" height="60" as="geometry" />
        </mxCell>
        <mxCell id="Idmc_XTQv_-H7MCbFBoS-98" value="" style="endArrow=classic;html=1;rounded=1;sketch=0;fontSize=17;curved=0;entryX=0;entryY=0;entryDx=0;entryDy=0;labelBackgroundColor=#B0E3E6;strokeColor=#182E3E;fontColor=#1A1A1A;fontStyle=1" parent="1" edge="1">
          <mxGeometry width="50" height="50" relative="1" as="geometry">
            <mxPoint x="865" y="325" as="sourcePoint" />
            <mxPoint x="1055" y="325" as="targetPoint" />
          </mxGeometry>
        </mxCell>
        <mxCell id="Idmc_XTQv_-H7MCbFBoS-102" value="定期拉取订单" style="text;html=1;align=center;verticalAlign=middle;resizable=0;points=[];autosize=1;strokeColor=none;fillColor=none;fontSize=17;fontColor=#1A1A1A;fontStyle=1" parent="1" vertex="1">
          <mxGeometry x="887" y="304" width="120" height="30" as="geometry" />
        </mxCell>
        <mxCell id="Idmc_XTQv_-H7MCbFBoS-107" value="acc运力平台" style="rounded=0;whiteSpace=wrap;html=1;shadow=1;labelBackgroundColor=none;strokeWidth=1;fontFamily=Verdana;fontSize=17;align=center;fontStyle=1;fillColor=#F08E81;strokeColor=#FFFFFF;fontColor=#1A1A1A;" parent="1" vertex="1">
          <mxGeometry x="1070" y="509" width="120" height="60" as="geometry" />
        </mxCell>
      </root>
    </mxGraphModel>
  </diagram>
  <diagram id="yBtcwEMLk8sNVTrsk6d0" name="Page-2">
    <mxGraphModel dx="946" dy="538" grid="1" gridSize="10" guides="1" tooltips="1" connect="1" arrows="1" fold="1" page="1" pageScale="1" pageWidth="850" pageHeight="1100" background="#B0E3E6" math="0" shadow="0">
      <root>
        <mxCell id="RXqplQzH3D20h99FI2Zn-0" />
        <mxCell id="RXqplQzH3D20h99FI2Zn-1" parent="RXqplQzH3D20h99FI2Zn-0" />
        <mxCell id="zRbrU24dCmyhaMwVw2HB-0" style="edgeStyle=orthogonalEdgeStyle;rounded=0;html=1;labelBackgroundColor=none;startSize=5;endArrow=classicThin;endFill=1;endSize=5;jettySize=auto;orthogonalLoop=1;strokeWidth=1;fontFamily=Verdana;fontSize=17;fontStyle=1;strokeColor=#182E3E;fontColor=#1A1A1A;" edge="1" parent="RXqplQzH3D20h99FI2Zn-1" source="zRbrU24dCmyhaMwVw2HB-4" target="zRbrU24dCmyhaMwVw2HB-6">
          <mxGeometry relative="1" as="geometry" />
        </mxCell>
        <mxCell id="zRbrU24dCmyhaMwVw2HB-1" value="" style="edgeStyle=orthogonalEdgeStyle;rounded=0;orthogonalLoop=1;jettySize=auto;html=1;entryX=0.5;entryY=1;entryDx=0;entryDy=0;fontSize=17;fontStyle=1;labelBackgroundColor=#B0E3E6;strokeColor=#182E3E;fontColor=#1A1A1A;" edge="1" parent="RXqplQzH3D20h99FI2Zn-1" source="zRbrU24dCmyhaMwVw2HB-4" target="zRbrU24dCmyhaMwVw2HB-36">
          <mxGeometry relative="1" as="geometry">
            <mxPoint x="80" y="140" as="targetPoint" />
          </mxGeometry>
        </mxCell>
        <mxCell id="zRbrU24dCmyhaMwVw2HB-2" value="拉取运营配置信息" style="edgeLabel;html=1;align=center;verticalAlign=middle;resizable=0;points=[];fontSize=17;fontStyle=1;labelBackgroundColor=#B0E3E6;fontColor=#1A1A1A;" vertex="1" connectable="0" parent="zRbrU24dCmyhaMwVw2HB-1">
          <mxGeometry x="0.0667" y="-4" relative="1" as="geometry">
            <mxPoint y="-1" as="offset" />
          </mxGeometry>
        </mxCell>
        <mxCell id="zRbrU24dCmyhaMwVw2HB-3" value="" style="edgeStyle=orthogonalEdgeStyle;curved=0;rounded=1;sketch=0;orthogonalLoop=1;jettySize=auto;html=1;fontSize=17;entryX=0;entryY=0.5;entryDx=0;entryDy=0;labelBackgroundColor=#B0E3E6;strokeColor=#182E3E;fontColor=#1A1A1A;fontStyle=1" edge="1" parent="RXqplQzH3D20h99FI2Zn-1" source="zRbrU24dCmyhaMwVw2HB-4" target="zRbrU24dCmyhaMwVw2HB-43">
          <mxGeometry relative="1" as="geometry">
            <mxPoint x="-230" y="-140" as="targetPoint" />
          </mxGeometry>
        </mxCell>
        <mxCell id="zRbrU24dCmyhaMwVw2HB-4" value="萝卜app" style="rounded=0;whiteSpace=wrap;html=1;shadow=1;labelBackgroundColor=none;strokeWidth=1;fontFamily=Verdana;fontSize=17;align=center;fontStyle=1;strokeColor=#FFFFFF;fillColor=#F08E81;fontColor=#1A1A1A;" vertex="1" parent="RXqplQzH3D20h99FI2Zn-1">
          <mxGeometry x="20" y="220" width="120" height="60" as="geometry" />
        </mxCell>
        <mxCell id="zRbrU24dCmyhaMwVw2HB-5" value="" style="edgeStyle=orthogonalEdgeStyle;rounded=0;html=1;labelBackgroundColor=none;startSize=5;endArrow=classicThin;endFill=1;endSize=5;jettySize=auto;orthogonalLoop=1;strokeWidth=1;fontFamily=Verdana;fontSize=17;fontStyle=1;entryX=0;entryY=0.5;entryDx=0;entryDy=0;strokeColor=#182E3E;fontColor=#1A1A1A;" edge="1" parent="RXqplQzH3D20h99FI2Zn-1" source="zRbrU24dCmyhaMwVw2HB-6" target="zRbrU24dCmyhaMwVw2HB-10">
          <mxGeometry x="-0.7778" y="10" relative="1" as="geometry">
            <mxPoint as="offset" />
            <mxPoint x="390" y="250" as="targetPoint" />
          </mxGeometry>
        </mxCell>
        <mxCell id="zRbrU24dCmyhaMwVw2HB-6" value="站点选择" style="rhombus;whiteSpace=wrap;html=1;rounded=0;shadow=1;labelBackgroundColor=none;strokeWidth=1;fontFamily=Verdana;fontSize=17;align=center;fontStyle=1;fillColor=#F08E81;strokeColor=#FFFFFF;fontColor=#1A1A1A;" vertex="1" parent="RXqplQzH3D20h99FI2Zn-1">
          <mxGeometry x="280" y="220" width="100" height="60" as="geometry" />
        </mxCell>
        <mxCell id="zRbrU24dCmyhaMwVw2HB-7" value="" style="edgeStyle=orthogonalEdgeStyle;rounded=0;orthogonalLoop=1;jettySize=auto;html=1;fontSize=17;fontStyle=1;labelBackgroundColor=#B0E3E6;strokeColor=#182E3E;fontColor=#1A1A1A;" edge="1" parent="RXqplQzH3D20h99FI2Zn-1" source="zRbrU24dCmyhaMwVw2HB-8" target="zRbrU24dCmyhaMwVw2HB-28">
          <mxGeometry relative="1" as="geometry" />
        </mxCell>
        <mxCell id="zRbrU24dCmyhaMwVw2HB-8" value="到达起点" style="rhombus;whiteSpace=wrap;html=1;rounded=0;shadow=1;labelBackgroundColor=none;strokeWidth=1;fontFamily=Verdana;fontSize=17;align=center;fontStyle=1;fillColor=#F08E81;strokeColor=#FFFFFF;fontColor=#1A1A1A;" vertex="1" parent="RXqplQzH3D20h99FI2Zn-1">
          <mxGeometry x="280" y="569" width="100" height="60" as="geometry" />
        </mxCell>
        <mxCell id="zRbrU24dCmyhaMwVw2HB-9" value="" style="edgeStyle=orthogonalEdgeStyle;rounded=0;orthogonalLoop=1;jettySize=auto;html=1;fontSize=17;fontStyle=1;labelBackgroundColor=#B0E3E6;strokeColor=#182E3E;fontColor=#1A1A1A;" edge="1" parent="RXqplQzH3D20h99FI2Zn-1" source="zRbrU24dCmyhaMwVw2HB-10" target="zRbrU24dCmyhaMwVw2HB-15">
          <mxGeometry relative="1" as="geometry">
            <Array as="points">
              <mxPoint x="680" y="250" />
            </Array>
          </mxGeometry>
        </mxCell>
        <mxCell id="zRbrU24dCmyhaMwVw2HB-10" value="下单" style="rhombus;whiteSpace=wrap;html=1;rounded=0;shadow=1;labelBackgroundColor=none;strokeWidth=1;fontFamily=Verdana;fontSize=17;align=center;fontStyle=1;fillColor=#F08E81;strokeColor=#FFFFFF;fontColor=#1A1A1A;" vertex="1" parent="RXqplQzH3D20h99FI2Zn-1">
          <mxGeometry x="490" y="220" width="100" height="60" as="geometry" />
        </mxCell>
        <mxCell id="zRbrU24dCmyhaMwVw2HB-11" value="" style="edgeStyle=orthogonalEdgeStyle;rounded=0;orthogonalLoop=1;jettySize=auto;html=1;fontSize=17;fontStyle=1;labelBackgroundColor=#B0E3E6;strokeColor=#182E3E;fontColor=#1A1A1A;" edge="1" parent="RXqplQzH3D20h99FI2Zn-1" source="zRbrU24dCmyhaMwVw2HB-15">
          <mxGeometry relative="1" as="geometry">
            <mxPoint x="490" y="450" as="targetPoint" />
            <Array as="points">
              <mxPoint x="740" y="450" />
            </Array>
          </mxGeometry>
        </mxCell>
        <mxCell id="zRbrU24dCmyhaMwVw2HB-12" value="" style="edgeStyle=orthogonalEdgeStyle;rounded=0;orthogonalLoop=1;jettySize=auto;html=1;entryX=0.442;entryY=1.067;entryDx=0;entryDy=0;entryPerimeter=0;fontSize=17;fontStyle=1;labelBackgroundColor=#B0E3E6;strokeColor=#182E3E;fontColor=#1A1A1A;" edge="1" parent="RXqplQzH3D20h99FI2Zn-1">
          <mxGeometry relative="1" as="geometry">
            <Array as="points">
              <mxPoint x="650" y="320" />
              <mxPoint x="73" y="320" />
            </Array>
            <mxPoint x="650" y="346.0569230769231" as="sourcePoint" />
            <mxPoint x="73.03999999999996" y="280.0000000000002" as="targetPoint" />
          </mxGeometry>
        </mxCell>
        <mxCell id="zRbrU24dCmyhaMwVw2HB-13" style="edgeStyle=orthogonalEdgeStyle;rounded=0;orthogonalLoop=1;jettySize=auto;html=1;entryX=0.5;entryY=0;entryDx=0;entryDy=0;exitX=0;exitY=0.5;exitDx=0;exitDy=0;fontSize=17;fontStyle=1;labelBackgroundColor=#B0E3E6;strokeColor=#182E3E;fontColor=#1A1A1A;" edge="1" parent="RXqplQzH3D20h99FI2Zn-1" source="zRbrU24dCmyhaMwVw2HB-15">
          <mxGeometry relative="1" as="geometry">
            <mxPoint x="773.0000000000002" y="360.0769230769231" as="sourcePoint" />
            <mxPoint x="73" y="420" as="targetPoint" />
            <Array as="points">
              <mxPoint x="780" y="360" />
              <mxPoint x="73" y="360" />
            </Array>
          </mxGeometry>
        </mxCell>
        <mxCell id="zRbrU24dCmyhaMwVw2HB-14" value="上报车辆session" style="edgeStyle=orthogonalEdgeStyle;curved=0;rounded=1;sketch=0;orthogonalLoop=1;jettySize=auto;html=1;fontSize=17;entryX=0;entryY=0.5;entryDx=0;entryDy=0;labelBackgroundColor=#B0E3E6;strokeColor=#182E3E;fontColor=#1A1A1A;fontStyle=1" edge="1" parent="RXqplQzH3D20h99FI2Zn-1">
          <mxGeometry relative="1" as="geometry">
            <mxPoint x="865" y="371" as="sourcePoint" />
            <mxPoint x="1055" y="371" as="targetPoint" />
          </mxGeometry>
        </mxCell>
        <mxCell id="zRbrU24dCmyhaMwVw2HB-15" value="MCP" style="rounded=0;whiteSpace=wrap;html=1;shadow=1;labelBackgroundColor=none;strokeWidth=1;fontFamily=Verdana;fontSize=17;align=center;fontStyle=1;fillColor=#F08E81;strokeColor=#FFFFFF;fontColor=#1A1A1A;" vertex="1" parent="RXqplQzH3D20h99FI2Zn-1">
          <mxGeometry x="615" y="290" width="250" height="110" as="geometry" />
        </mxCell>
        <mxCell id="zRbrU24dCmyhaMwVw2HB-16" value="" style="edgeStyle=orthogonalEdgeStyle;curved=0;rounded=1;sketch=0;orthogonalLoop=1;jettySize=auto;html=1;fontSize=17;labelBackgroundColor=#B0E3E6;strokeColor=#182E3E;fontColor=#1A1A1A;fontStyle=1" edge="1" parent="RXqplQzH3D20h99FI2Zn-1">
          <mxGeometry relative="1" as="geometry">
            <mxPoint x="1055" y="345.0769230769231" as="sourcePoint" />
            <mxPoint x="865" y="345" as="targetPoint" />
            <Array as="points">
              <mxPoint x="1005" y="345" />
              <mxPoint x="1005" y="345" />
            </Array>
          </mxGeometry>
        </mxCell>
        <mxCell id="zRbrU24dCmyhaMwVw2HB-17" value="派单" style="edgeLabel;html=1;align=center;verticalAlign=middle;resizable=0;points=[];fontSize=17;labelBackgroundColor=#B0E3E6;fontColor=#1A1A1A;fontStyle=1" vertex="1" connectable="0" parent="zRbrU24dCmyhaMwVw2HB-16">
          <mxGeometry x="0.1077" y="-1" relative="1" as="geometry">
            <mxPoint x="-1" as="offset" />
          </mxGeometry>
        </mxCell>
        <mxCell id="zRbrU24dCmyhaMwVw2HB-18" value="派单调度" style="rounded=0;whiteSpace=wrap;html=1;shadow=1;labelBackgroundColor=none;strokeWidth=1;fontFamily=Verdana;fontSize=17;align=center;fontStyle=1;strokeColor=#FFFFFF;fillColor=#F08E81;fontColor=#1A1A1A;" vertex="1" parent="RXqplQzH3D20h99FI2Zn-1">
          <mxGeometry x="1055" y="290" width="150" height="110" as="geometry" />
        </mxCell>
        <mxCell id="zRbrU24dCmyhaMwVw2HB-19" value="" style="edgeStyle=orthogonalEdgeStyle;rounded=0;orthogonalLoop=1;jettySize=auto;html=1;entryX=0;entryY=0.5;entryDx=0;entryDy=0;fontSize=17;fontStyle=1;labelBackgroundColor=#B0E3E6;strokeColor=#182E3E;fontColor=#1A1A1A;" edge="1" parent="RXqplQzH3D20h99FI2Zn-1" source="zRbrU24dCmyhaMwVw2HB-25" target="zRbrU24dCmyhaMwVw2HB-26">
          <mxGeometry relative="1" as="geometry">
            <mxPoint x="240" y="450" as="targetPoint" />
          </mxGeometry>
        </mxCell>
        <mxCell id="zRbrU24dCmyhaMwVw2HB-20" value="" style="edgeStyle=orthogonalEdgeStyle;rounded=0;orthogonalLoop=1;jettySize=auto;html=1;entryX=0;entryY=0.5;entryDx=0;entryDy=0;fontSize=17;fontStyle=1;labelBackgroundColor=#B0E3E6;strokeColor=#182E3E;fontColor=#1A1A1A;" edge="1" parent="RXqplQzH3D20h99FI2Zn-1" target="zRbrU24dCmyhaMwVw2HB-8">
          <mxGeometry relative="1" as="geometry">
            <mxPoint x="76.92000000000007" y="610" as="targetPoint" />
            <mxPoint x="79" y="480" as="sourcePoint" />
            <Array as="points">
              <mxPoint x="100" y="480" />
              <mxPoint x="100" y="599" />
            </Array>
          </mxGeometry>
        </mxCell>
        <mxCell id="zRbrU24dCmyhaMwVw2HB-21" value="" style="edgeStyle=orthogonalEdgeStyle;curved=0;rounded=1;sketch=0;orthogonalLoop=1;jettySize=auto;html=1;fontSize=17;entryX=0.75;entryY=1;entryDx=0;entryDy=0;labelBackgroundColor=#B0E3E6;strokeColor=#182E3E;fontColor=#1A1A1A;fontStyle=1" edge="1" parent="RXqplQzH3D20h99FI2Zn-1" source="zRbrU24dCmyhaMwVw2HB-25" target="zRbrU24dCmyhaMwVw2HB-15">
          <mxGeometry relative="1" as="geometry">
            <mxPoint x="882" y="400" as="targetPoint" />
            <Array as="points">
              <mxPoint x="130" y="530" />
              <mxPoint x="803" y="530" />
            </Array>
          </mxGeometry>
        </mxCell>
        <mxCell id="zRbrU24dCmyhaMwVw2HB-22" value="上报车辆session信息、查是否有订单派送给自己" style="edgeLabel;html=1;align=center;verticalAlign=middle;resizable=0;points=[];fontSize=17;labelBackgroundColor=#B0E3E6;fontColor=#1A1A1A;fontStyle=1" vertex="1" connectable="0" parent="zRbrU24dCmyhaMwVw2HB-21">
          <mxGeometry x="-0.0092" y="2" relative="1" as="geometry">
            <mxPoint as="offset" />
          </mxGeometry>
        </mxCell>
        <mxCell id="zRbrU24dCmyhaMwVw2HB-23" value="" style="edgeStyle=orthogonalEdgeStyle;curved=0;rounded=1;sketch=0;orthogonalLoop=1;jettySize=auto;html=1;fontSize=17;labelBackgroundColor=#B0E3E6;strokeColor=#182E3E;fontColor=#1A1A1A;fontStyle=1" edge="1" parent="RXqplQzH3D20h99FI2Zn-1" source="zRbrU24dCmyhaMwVw2HB-25">
          <mxGeometry relative="1" as="geometry">
            <mxPoint x="1130" y="570" as="targetPoint" />
            <Array as="points">
              <mxPoint x="80" y="680" />
              <mxPoint x="1130" y="680" />
            </Array>
          </mxGeometry>
        </mxCell>
        <mxCell id="zRbrU24dCmyhaMwVw2HB-24" value="拉取运力配置信息" style="edgeLabel;html=1;align=center;verticalAlign=middle;resizable=0;points=[];fontSize=17;labelBackgroundColor=#B0E3E6;fontColor=#1A1A1A;fontStyle=1" vertex="1" connectable="0" parent="zRbrU24dCmyhaMwVw2HB-23">
          <mxGeometry x="0.2492" y="-3" relative="1" as="geometry">
            <mxPoint x="120" y="-3" as="offset" />
          </mxGeometry>
        </mxCell>
        <mxCell id="zRbrU24dCmyhaMwVw2HB-25" value="车端" style="rounded=0;whiteSpace=wrap;html=1;shadow=1;labelBackgroundColor=none;strokeWidth=1;fontFamily=Verdana;fontSize=17;align=center;fontStyle=1;strokeColor=#FFFFFF;fillColor=#F08E81;fontColor=#1A1A1A;" vertex="1" parent="RXqplQzH3D20h99FI2Zn-1">
          <mxGeometry x="20" y="420" width="120" height="60" as="geometry" />
        </mxCell>
        <mxCell id="zRbrU24dCmyhaMwVw2HB-26" value="Habor" style="rounded=0;whiteSpace=wrap;html=1;shadow=1;labelBackgroundColor=none;strokeWidth=1;fontFamily=Verdana;fontSize=17;align=center;fontStyle=1;strokeColor=#FFFFFF;fillColor=#F08E81;fontColor=#1A1A1A;" vertex="1" parent="RXqplQzH3D20h99FI2Zn-1">
          <mxGeometry x="370" y="420" width="120" height="60" as="geometry" />
        </mxCell>
        <mxCell id="zRbrU24dCmyhaMwVw2HB-27" value="" style="edgeStyle=orthogonalEdgeStyle;rounded=0;orthogonalLoop=1;jettySize=auto;html=1;fontSize=17;fontStyle=1;labelBackgroundColor=#B0E3E6;strokeColor=#182E3E;fontColor=#1A1A1A;" edge="1" parent="RXqplQzH3D20h99FI2Zn-1" source="zRbrU24dCmyhaMwVw2HB-28" target="zRbrU24dCmyhaMwVw2HB-29">
          <mxGeometry relative="1" as="geometry" />
        </mxCell>
        <mxCell id="zRbrU24dCmyhaMwVw2HB-28" value="到达终点" style="rhombus;whiteSpace=wrap;html=1;rounded=0;shadow=1;labelBackgroundColor=none;strokeWidth=1;fontFamily=Verdana;fontSize=17;align=center;fontStyle=1;fillColor=#F08E81;strokeColor=#FFFFFF;fontColor=#1A1A1A;" vertex="1" parent="RXqplQzH3D20h99FI2Zn-1">
          <mxGeometry x="430" y="569" width="100" height="60" as="geometry" />
        </mxCell>
        <mxCell id="zRbrU24dCmyhaMwVw2HB-29" value="下车" style="rhombus;whiteSpace=wrap;html=1;rounded=0;shadow=1;labelBackgroundColor=none;strokeWidth=1;fontFamily=Verdana;fontSize=17;align=center;fontStyle=1;fillColor=#F08E81;strokeColor=#FFFFFF;fontColor=#1A1A1A;" vertex="1" parent="RXqplQzH3D20h99FI2Zn-1">
          <mxGeometry x="580" y="569" width="100" height="60" as="geometry" />
        </mxCell>
        <mxCell id="zRbrU24dCmyhaMwVw2HB-30" value="车辆位置等信息定期上报" style="text;html=1;align=center;verticalAlign=middle;resizable=0;points=[];autosize=1;strokeColor=none;fillColor=none;fontSize=17;fontStyle=1;fontColor=#1A1A1A;" vertex="1" parent="RXqplQzH3D20h99FI2Zn-1">
          <mxGeometry x="160" y="425" width="200" height="30" as="geometry" />
        </mxCell>
        <mxCell id="zRbrU24dCmyhaMwVw2HB-31" value="派车" style="text;html=1;align=center;verticalAlign=middle;resizable=0;points=[];autosize=1;strokeColor=none;fillColor=none;fontSize=17;fontStyle=1;fontColor=#1A1A1A;" vertex="1" parent="RXqplQzH3D20h99FI2Zn-1">
          <mxGeometry x="364" y="305" width="50" height="30" as="geometry" />
        </mxCell>
        <mxCell id="zRbrU24dCmyhaMwVw2HB-32" value="派单" style="text;html=1;align=center;verticalAlign=middle;resizable=0;points=[];autosize=1;strokeColor=none;fillColor=none;fontSize=17;fontStyle=1;fontColor=#1A1A1A;" vertex="1" parent="RXqplQzH3D20h99FI2Zn-1">
          <mxGeometry x="364" y="348" width="50" height="30" as="geometry" />
        </mxCell>
        <mxCell id="zRbrU24dCmyhaMwVw2HB-33" value="计价" style="rounded=0;whiteSpace=wrap;html=1;shadow=1;labelBackgroundColor=none;strokeWidth=1;fontFamily=Verdana;fontSize=17;align=center;fontStyle=1;fillColor=#F08E81;strokeColor=#FFFFFF;fontColor=#1A1A1A;" vertex="1" parent="RXqplQzH3D20h99FI2Zn-1">
          <mxGeometry x="780" y="60" width="120" height="60" as="geometry" />
        </mxCell>
        <mxCell id="zRbrU24dCmyhaMwVw2HB-34" value="" style="endArrow=classic;html=1;rounded=0;fontSize=17;fontStyle=1;exitX=0.834;exitY=0.014;exitDx=0;exitDy=0;exitPerimeter=0;entryX=0.36;entryY=1.001;entryDx=0;entryDy=0;entryPerimeter=0;labelBackgroundColor=#B0E3E6;strokeColor=#182E3E;fontColor=#1A1A1A;" edge="1" parent="RXqplQzH3D20h99FI2Zn-1" source="zRbrU24dCmyhaMwVw2HB-15" target="zRbrU24dCmyhaMwVw2HB-33">
          <mxGeometry width="50" height="50" relative="1" as="geometry">
            <mxPoint x="859" y="310" as="sourcePoint" />
            <mxPoint x="859" y="120" as="targetPoint" />
          </mxGeometry>
        </mxCell>
        <mxCell id="zRbrU24dCmyhaMwVw2HB-35" value="" style="endArrow=classic;html=1;rounded=0;fontSize=17;fontStyle=1;labelBackgroundColor=#B0E3E6;strokeColor=#182E3E;fontColor=#1A1A1A;" edge="1" parent="RXqplQzH3D20h99FI2Zn-1">
          <mxGeometry width="50" height="50" relative="1" as="geometry">
            <mxPoint x="850" y="120" as="sourcePoint" />
            <mxPoint x="850" y="290" as="targetPoint" />
            <Array as="points">
              <mxPoint x="850" y="290" />
            </Array>
          </mxGeometry>
        </mxCell>
        <mxCell id="zRbrU24dCmyhaMwVw2HB-36" value="acc运营平台" style="rounded=0;whiteSpace=wrap;html=1;shadow=1;labelBackgroundColor=none;strokeWidth=1;fontFamily=Verdana;fontSize=17;align=center;fontStyle=1;strokeColor=#FFFFFF;fillColor=#F08E81;fontColor=#1A1A1A;" vertex="1" parent="RXqplQzH3D20h99FI2Zn-1">
          <mxGeometry x="20" y="50" width="120" height="60" as="geometry" />
        </mxCell>
        <mxCell id="zRbrU24dCmyhaMwVw2HB-37" value="" style="edgeStyle=orthogonalEdgeStyle;curved=0;rounded=1;sketch=0;orthogonalLoop=1;jettySize=auto;html=1;fontSize=17;strokeColor=#182E3E;labelBackgroundColor=#B0E3E6;fontColor=#1A1A1A;fontStyle=1" edge="1" parent="RXqplQzH3D20h99FI2Zn-1" source="zRbrU24dCmyhaMwVw2HB-38" target="zRbrU24dCmyhaMwVw2HB-40">
          <mxGeometry relative="1" as="geometry" />
        </mxCell>
        <mxCell id="zRbrU24dCmyhaMwVw2HB-38" value="到达终点" style="rhombus;whiteSpace=wrap;html=1;rounded=0;shadow=1;labelBackgroundColor=none;strokeWidth=1;fontFamily=Verdana;fontSize=17;align=center;fontStyle=1;fillColor=#F08E81;strokeColor=#FFFFFF;fontColor=#1A1A1A;" vertex="1" parent="RXqplQzH3D20h99FI2Zn-1">
          <mxGeometry x="364" y="110" width="100" height="60" as="geometry" />
        </mxCell>
        <mxCell id="zRbrU24dCmyhaMwVw2HB-39" value="" style="edgeStyle=orthogonalEdgeStyle;curved=0;rounded=1;sketch=0;orthogonalLoop=1;jettySize=auto;html=1;fontSize=17;strokeColor=#182E3E;labelBackgroundColor=#B0E3E6;fontColor=#1A1A1A;fontStyle=1" edge="1" parent="RXqplQzH3D20h99FI2Zn-1" source="zRbrU24dCmyhaMwVw2HB-40" target="zRbrU24dCmyhaMwVw2HB-41">
          <mxGeometry relative="1" as="geometry" />
        </mxCell>
        <mxCell id="zRbrU24dCmyhaMwVw2HB-40" value="下车" style="rhombus;whiteSpace=wrap;html=1;rounded=0;shadow=1;labelBackgroundColor=none;strokeWidth=1;fontFamily=Verdana;fontSize=17;align=center;fontStyle=1;fillColor=#F08E81;strokeColor=#FFFFFF;fontColor=#1A1A1A;" vertex="1" parent="RXqplQzH3D20h99FI2Zn-1">
          <mxGeometry x="520" y="110" width="100" height="60" as="geometry" />
        </mxCell>
        <mxCell id="zRbrU24dCmyhaMwVw2HB-41" value="支付" style="rhombus;whiteSpace=wrap;html=1;rounded=0;shadow=1;labelBackgroundColor=none;strokeWidth=1;fontFamily=Verdana;fontSize=17;align=center;fontStyle=1;fillColor=#F08E81;strokeColor=#FFFFFF;fontColor=#1A1A1A;" vertex="1" parent="RXqplQzH3D20h99FI2Zn-1">
          <mxGeometry x="660" y="110" width="100" height="60" as="geometry" />
        </mxCell>
        <mxCell id="zRbrU24dCmyhaMwVw2HB-42" value="" style="edgeStyle=orthogonalEdgeStyle;curved=0;rounded=1;sketch=0;orthogonalLoop=1;jettySize=auto;html=1;fontSize=17;strokeColor=#182E3E;labelBackgroundColor=#B0E3E6;fontColor=#1A1A1A;fontStyle=1" edge="1" parent="RXqplQzH3D20h99FI2Zn-1" source="zRbrU24dCmyhaMwVw2HB-43" target="zRbrU24dCmyhaMwVw2HB-38">
          <mxGeometry relative="1" as="geometry" />
        </mxCell>
        <mxCell id="zRbrU24dCmyhaMwVw2HB-43" value="开始行程" style="rhombus;whiteSpace=wrap;html=1;rounded=0;shadow=1;labelBackgroundColor=none;strokeWidth=1;fontFamily=Verdana;fontSize=17;align=center;fontStyle=1;fillColor=#F08E81;strokeColor=#FFFFFF;fontColor=#1A1A1A;" vertex="1" parent="RXqplQzH3D20h99FI2Zn-1">
          <mxGeometry x="200" y="110" width="100" height="60" as="geometry" />
        </mxCell>
        <mxCell id="zRbrU24dCmyhaMwVw2HB-44" value="" style="endArrow=classic;html=1;rounded=1;sketch=0;fontSize=17;curved=0;entryX=0;entryY=0;entryDx=0;entryDy=0;labelBackgroundColor=#B0E3E6;strokeColor=#182E3E;fontColor=#1A1A1A;fontStyle=1" edge="1" parent="RXqplQzH3D20h99FI2Zn-1">
          <mxGeometry width="50" height="50" relative="1" as="geometry">
            <mxPoint x="865" y="325" as="sourcePoint" />
            <mxPoint x="1055" y="325" as="targetPoint" />
          </mxGeometry>
        </mxCell>
        <mxCell id="zRbrU24dCmyhaMwVw2HB-45" value="定期拉取订单" style="text;html=1;align=center;verticalAlign=middle;resizable=0;points=[];autosize=1;strokeColor=none;fillColor=none;fontSize=17;fontColor=#1A1A1A;fontStyle=1" vertex="1" parent="RXqplQzH3D20h99FI2Zn-1">
          <mxGeometry x="887" y="304" width="120" height="30" as="geometry" />
        </mxCell>
        <mxCell id="zRbrU24dCmyhaMwVw2HB-46" value="acc运力平台" style="rounded=0;whiteSpace=wrap;html=1;shadow=1;labelBackgroundColor=none;strokeWidth=1;fontFamily=Verdana;fontSize=17;align=center;fontStyle=1;fillColor=#F08E81;strokeColor=#FFFFFF;fontColor=#1A1A1A;" vertex="1" parent="RXqplQzH3D20h99FI2Zn-1">
          <mxGeometry x="1070" y="509" width="120" height="60" as="geometry" />
        </mxCell>
      </root>
    </mxGraphModel>
  </diagram>
</mxfile>
